<svg width="269" height="269" viewBox="0 0 269 269" fill="none" xmlns="http://www.w3.org/2000/svg">
<path d="M119.543 14.5637C120.95 -3.9189 148.05 -3.91884 149.457 14.5637L155.903 99.2785C156.465 106.665 162.335 112.535 169.721 113.097L254.436 119.543C272.919 120.95 272.919 148.05 254.436 149.457L169.721 155.903C162.335 156.465 156.465 162.335 155.903 169.721L149.457 254.436C148.05 272.919 120.95 272.919 119.543 254.436L113.097 169.721C112.535 162.335 106.665 156.465 99.2785 155.903L14.5637 149.457C-3.9189 148.05 -3.91884 120.95 14.5637 119.543L99.2785 113.097C106.665 112.535 112.535 106.665 113.097 99.2785L119.543 14.5637Z" fill="#2D7DDA"/>
</svg>
