<svg width="368" height="12" viewBox="0 0 368 12" fill="none" xmlns="http://www.w3.org/2000/svg">
<path d="M104.945 10.2086C137.284 10.4815 175.976 10.68 212.445 10.6616M212.445 10.6616C309.612 10.6128 391.004 9.02541 294.445 3.20862C240.779 2.84722 131.645 2.94126 124.445 6.20862L18.4454 10.2086C3.94537 9.54196 -15.0546 7.20864 24.9454 3.20862C64.9454 -0.791395 43.2787 1.54193 27.4454 3.2086C82.9454 4.01061 197.645 6.62404 212.445 10.6616ZM212.445 10.6616C256.283 10.5218 342.265 10.2524 360.445 10.2134M360.445 10.2134C361.895 10.2103 362.914 10.2086 363.445 10.2086C370.645 10.2086 364.445 10.2118 360.445 10.2134Z" stroke="#FFD957" stroke-width="2"/>
</svg>
